#define close_hover_width 12
#define close_hover_height 12
static unsigned char close_hover_bits[] = {
   0x00, 0x00, 0x07, 0x0e, 0x07, 0x0e, 0x07, 0x0e, 0xf0, 0x00, 0xf0, 0x00,
   0xf0, 0x00, 0xf0, 0x00, 0x07, 0x0e, 0x07, 0x0e, 0x07, 0x0e, 0x00, 0x00 };
