#define close_hover_width 12
#define close_hover_height 12
static unsigned char close_hover_bits[] = {
   0xf0, 0x00, 0xfc, 0x03, 0xfe, 0x07, 0x66, 0x06, 0x07, 0x0e, 0x0f, 0x0f,
   0x0f, 0x0f, 0x07, 0x0e, 0x66, 0x06, 0xfe, 0x07, 0xfc, 0x03, 0xf0, 0x00 };
